<?xml version="1.0"?>
<svg width="493.763" height="493.763" xmlns="http://www.w3.org/2000/svg" xmlns:svg="http://www.w3.org/2000/svg" xmlns:xlink="http://www.w3.org/1999/xlink">
 <g>
  <title>Layer 1</title>
  <g id="svg_1">
   <g id="svg_2">
    <path fill="#00ffff" d="m218.267,116.448c-15.23,15.23 -15.23,39.924 0,55.155c15.229,15.229 39.924,15.229 55.155,0c15.229,-15.23 15.229,-39.925 0,-55.155c-15.231,-15.23 -39.926,-15.231 -55.155,0zm54.094,26.516c-3.163,3.163 -11.426,0.028 -18.455,-7.001c-7.03,-7.028 -10.163,-15.292 -7.001,-18.455c3.163,-3.163 11.426,-0.028 18.455,7.001c7.03,7.03 10.164,15.292 7.001,18.455z" id="svg_3"/>
    <path fill="#00ffff" d="m492.618,161.299c-2.499,-3.59 -4.943,-7.217 -7.416,-10.825c-11.234,-16.395 -24.361,-31.432 -38.634,-45.25c-18.247,-17.668 -38.232,-33.562 -59.815,-46.977c-21.725,-13.503 -44.939,-24.555 -69.36,-32.229c-20.185,-6.343 -41.121,-10.143 -62.259,-11.08c-19.646,-0.87 -39.361,1.082 -58.568,5.226c-25.07,5.41 -49.316,14.792 -71.924,26.844c-22.479,11.984 -43.529,26.554 -62.86,43.136c-9.581,8.219 -18.742,16.945 -27.403,26.127c-8.199,8.692 -16.095,17.792 -23.099,27.482c-2.513,3.477 -4.929,7.017 -7.358,10.551c-1.583,2.305 -3.196,4.588 -4.749,6.911c-0.308,0.46 -0.209,0.493 0.341,0.936c1.125,0.904 2.251,1.811 3.376,2.716c4.019,3.231 7.868,6.657 11.876,9.902c10.058,8.143 20.533,15.773 31.28,22.979c21.353,14.315 43.874,26.92 67.405,37.287c4.774,2.104 9.615,4.03 14.447,5.994c-10.817,-6.859 -21.424,-13.953 -31.621,-21.716c-10.308,-7.848 -20.254,-16.162 -29.828,-24.89c-11.343,-10.34 -22.193,-21.244 -32.37,-32.735c19.287,-12.559 38.938,-24.542 59.188,-35.491c19.651,-10.624 39.85,-20.042 60.676,-28.12c4.186,-1.624 8.418,-3.162 12.689,-4.611c-9.357,14.609 -14.787,31.962 -14.787,50.561c0,51.832 42.168,94 94,94c51.833,0 94,-42.168 94,-94c0,-18.5 -5.375,-35.767 -14.641,-50.327c5.421,1.832 10.797,3.792 16.121,5.865c24.207,9.427 47.465,21.143 70.049,33.943c15.688,8.894 31.021,18.39 46.147,28.207c-17.028,19.229 -35.871,36.935 -56.022,52.855c-12.084,9.547 -24.713,18.213 -37.709,26.459c11.85,-4.81 23.533,-9.886 34.938,-15.685c11.521,-5.855 22.777,-12.227 33.75,-19.054c17.941,-11.164 35.457,-23.409 51.418,-37.288c1.821,-1.584 3.69,-3.093 5.572,-4.606c0.949,-0.766 1.9,-1.529 2.85,-2.294c0.472,-0.378 0.562,-0.427 0.3,-0.803zm-246.774,46.727c-35.29,0 -64,-28.71 -64,-64c0,-35.291 28.71,-64 64,-64c35.291,0 64,28.71 64,64c0.001,35.29 -28.709,64 -64,64z" id="svg_4"/>
   </g>
  </g>
  <g id="svg_5"/>
  <g id="svg_6"/>
  <g id="svg_7"/>
  <g id="svg_8"/>
  <g id="svg_9"/>
  <g id="svg_10"/>
  <g id="svg_11"/>
  <g id="svg_12"/>
  <g id="svg_13"/>
  <g id="svg_14"/>
  <g id="svg_15"/>
  <g id="svg_16"/>
  <g id="svg_17"/>
  <g id="svg_18"/>
  <g id="svg_19"/>
  <use fill="#00ffff" id="svg_22" xlink:href="#svg_21" transform="matrix(0.5388932380610422,0,0,0.50041693997506,140.70998130139856,290.922804845792) " y="-167.742995" x="-6.651711"/>
 </g>
 <defs>
  <symbol id="svg_21" viewBox="0 0 91.5 97.6" xmlns="http://www.w3.org/2000/svg" xmlns:xlink="http://www.w3.org/1999/xlink" xmlns:svg="http://www.w3.org/2000/svg">
   <path id="svg_20" d="m86.6,10.3l0,-0.1c-1.5,-2 -3.3,-3.7 -5.4,-5.3l0,0.1c-1.7,1.3 -3.4,2.7 -5,4.1c-0.7,-0.4 -1.3,-0.7 -1.9,-1c-0.8,-0.4 -1.6,-0.8 -2.5,-1c-0.3,-0.1 -0.6,-0.2 -0.9,-0.2c-0.2,-2.2 -0.4,-4.4 -0.7,-6.6c-1,-0.2 -2,-0.2 -3.1,-0.3l-1.6,0c-1,0.1 -1.9,0.1 -2.8,0.3c-0.3,2.1 -0.5,4.3 -0.6,6.5c-0.4,0 -0.7,0.1 -1.1,0.2c-0.1,0 -0.2,0 -0.3,0.1c-0.8,0.2 -1.6,0.6 -2.4,1c-0.7,0.3 -1.3,0.6 -1.9,1c-1.7,-1.4 -3.3,-2.7 -5,-4.1l-0.1,-0.1c-0.4,0.3 -0.8,0.6 -1.1,0.9c-0.7,0.5 -1.3,1.1 -1.8,1.7c-0.9,0.8 -1.6,1.8 -2.4,2.8l0.1,0c1.3,1.7 2.7,3.3 4.1,5c-0.4,0.6 -0.8,1.3 -1.1,1.9c-0.4,0.8 -0.7,1.7 -0.9,2.5c-0.2,0.4 -0.3,0.8 -0.3,1.1c-2.2,0.2 -4.4,0.4 -6.5,0.7c-0.2,1 -0.3,2 -0.3,3.1c0,1.5 0.1,3 0.4,4.4c2.1,0.2 4.2,0.4 6.4,0.6c0,0.4 0.1,0.8 0.3,1.1c0.2,0.9 0.5,1.7 0.9,2.6c0.4,0.7 0.7,1.4 1.2,2c-1.4,1.7 -2.8,3.3 -4.1,5c1.5,2.1 3.3,3.9 5.4,5.4l0,-0.1c1.6,-1.3 3.3,-2.7 4.9,-4.1l0.1,0c0.5,0.3 1.1,0.6 1.6,0.9c0.9,0.4 1.9,0.8 2.8,1c0.4,0.1 0.7,0.2 1,0.3c0.2,2.1 0.4,4.3 0.7,6.5c0.9,0.1 1.8,0.2 2.8,0.2l1.5,0c1.1,0 2.2,-0.1 3.3,-0.3c0.2,-2.1 0.4,-4.3 0.6,-6.5c0.3,-0.1 0.6,-0.2 0.9,-0.3c0.9,-0.2 1.7,-0.5 2.5,-0.9c0.7,-0.3 1.4,-0.7 2.1,-1.2c0,0.1 0,0.1 0.1,0.1c1.6,1.4 3.3,2.8 5,4.1c0.3,-0.2 0.6,-0.4 1,-0.7c0.6,-0.5 1.2,-1.1 1.7,-1.7c0.9,-0.9 1.8,-1.9 2.6,-3c-1.4,-1.7 -2.8,-3.4 -4.2,-5l0,-0.1c0.3,-0.5 0.6,-1.1 0.9,-1.7c0.3,-0.8 0.7,-1.6 0.9,-2.4c0,-0.1 0,-0.2 0.1,-0.2c0,-0.4 0.1,-0.7 0.2,-0.9c2.2,-0.2 4.4,-0.4 6.5,-0.6c0.2,-1 0.2,-2 0.3,-3l0,-1.7c-0.1,-1 -0.1,-2 -0.3,-3c-2.1,-0.2 -4.3,-0.4 -6.5,-0.6c-0.1,-0.3 -0.2,-0.6 -0.2,-0.9c-0.3,-0.9 -0.6,-1.8 -1,-2.7c-0.3,-0.6 -0.7,-1.3 -1,-1.9c1.3,-1.6 2.7,-3.3 4.1,-5zm-26.7,8.3c1.8,-1.9 4,-2.8 6.5,-2.7c2.6,-0.1 4.7,0.8 6.6,2.7c1.8,1.8 2.7,4 2.7,6.5c0,2.6 -0.9,4.7 -2.7,6.6c-1.9,1.8 -4,2.7 -6.6,2.7c-2.5,0 -4.7,-0.9 -6.5,-2.7c-1.8,-1.9 -2.7,-4 -2.7,-6.6c0,-2.5 0.9,-4.7 2.7,-6.5z"/>
   <path id="svg_23" d="m66.5,17.2c-2.2,0 -4,0.8 -5.6,2.3c-1.5,1.6 -2.3,3.4 -2.3,5.6s0.8,4 2.3,5.6c1.6,1.6 3.4,2.4 5.6,2.4s4,-0.8 5.6,-2.4c1.6,-1.6 2.3,-3.4 2.3,-5.6s-0.7,-4 -2.3,-5.6c-1.6,-1.5 -3.4,-2.3 -5.6,-2.3zm-4.2,3.7c1.2,-1.1 2.6,-1.7 4.2,-1.7s3,0.6 4.2,1.7c1.2,1.2 1.7,2.5 1.7,4.2s-0.5,3.1 -1.7,4.2c-1.2,1.2 -2.6,1.8 -4.2,1.8s-3,-0.6 -4.2,-1.8c-1.1,-1.1 -1.7,-2.5 -1.7,-4.2c0,-1.6 0.6,-3 1.7,-4.2z"/>
   <path id="svg_24" d="m40.8,33.6c-0.4,-0.2 -0.7,-0.3 -1,-0.3c-1.2,-0.3 -2.4,-0.5 -3.6,-0.7c-1.1,2.7 -2,5.3 -2.9,7.9l-1.8,0c-1.2,0.1 -2.3,0.2 -3.4,0.4c-0.9,0.1 -1.8,0.4 -2.7,0.7c-1.6,-2.3 -3.3,-4.6 -4.9,-6.8l-0.1,-0.1c-0.6,0.2 -1.2,0.4 -1.7,0.7c-1,0.4 -1.9,0.9 -2.8,1.5c-1.4,0.7 -2.7,1.6 -3.9,2.7l0,0.1c1.2,2.5 2.3,5 3.5,7.5c-0.7,0.7 -1.3,1.3 -1.9,2.1c-0.8,0.8 -1.5,1.8 -2.1,2.8c-0.3,0.4 -0.5,0.8 -0.7,1.3c-2.8,-0.5 -5.6,-1 -8.4,-1.4c-0.5,1.2 -1,2.4 -1.4,3.7c-0.4,2 -0.8,3.9 -1,5.8l7.8,3l0,1.4c0,1.1 0.1,2.3 0.4,3.5c0.1,1 0.4,2 0.7,3c-2.3,1.6 -4.5,3.2 -6.8,4.9c1.2,3 2.9,5.8 4.9,8.4l0.1,0c2.5,-1.2 5,-2.3 7.6,-3.5c0.6,0.6 1.2,1.1 1.8,1.7c0.9,0.8 2,1.5 3.2,2.2c0.3,0.2 0.7,0.4 1.1,0.7c-0.5,2.7 -0.9,5.5 -1.3,8.3c1.1,0.5 2.2,0.9 3.4,1.2c0.3,0.1 0.9,0.3 1.9,0.5c1.4,0.4 2.8,0.6 4.1,0.8c1.1,-2.7 2.1,-5.3 3,-8l1.3,0c1.2,0 2.3,-0.1 3.4,-0.3c1,-0.2 2,-0.5 3,-0.8c0,0 0,0.1 0.1,0.1c1.6,2.3 3.3,4.6 4.9,6.9c0.5,-0.3 1,-0.5 1.4,-0.7c1,-0.4 1.9,-0.9 2.8,-1.4c1.5,-0.9 2.9,-1.9 4.2,-3c-1.1,-2.6 -2.3,-5.1 -3.5,-7.7c0.6,-0.6 1.1,-1.2 1.7,-1.8c0.7,-0.9 1.4,-1.9 2,-2.8c0,-0.1 0.1,-0.2 0.1,-0.3c0.2,-0.3 0.4,-0.7 0.6,-1c2.8,0.5 5.6,0.9 8.4,1.4c0.5,-1.2 0.9,-2.4 1.3,-3.7c0.1,-0.3 0.2,-0.6 0.3,-1c0.1,-0.3 0.1,-0.6 0.3,-1c0.2,-1.3 0.5,-2.6 0.6,-3.8c-2.6,-1.1 -5.3,-2 -7.9,-3l0,-1.2c0,-1.2 -0.1,-2.5 -0.4,-3.7c-0.1,-0.9 -0.4,-1.8 -0.6,-2.7c2.3,-1.6 4.6,-3.3 6.8,-5l0.1,0c-1.2,-3 -2.8,-5.8 -5,-8.4c-2.6,1.1 -5.1,2.3 -7.6,3.5c-0.7,-0.7 -1.4,-1.4 -2.1,-2c-0.9,-0.7 -1.8,-1.4 -2.8,-1.9c-0.3,-0.3 -0.7,-0.5 -1,-0.7c0.4,-2.8 0.9,-5.6 1.3,-8.4c-1.2,-0.5 -2.5,-1 -3.8,-1.4c-0.3,-0.1 -0.7,-0.2 -1,-0.2zm-18.6,37.4c-1.7,-2.9 -2.1,-5.9 -1.2,-9.1c0.8,-3.2 2.7,-5.6 5.6,-7.3c2.8,-1.6 5.9,-2 9,-1.2c3.2,0.9 5.7,2.7 7.3,5.6c1.7,2.9 2.1,5.9 1.2,9.1c-0.8,3.2 -2.7,5.6 -5.5,7.2c-3,1.7 -6,2.1 -9.1,1.2c-3.2,-0.8 -5.7,-2.7 -7.3,-5.5z"/>
   <path id="svg_25" d="m22.8,62.4c-0.8,2.7 -0.5,5.3 0.9,7.7l0.1,0c1.4,2.5 3.5,4 6.2,4.8c2.7,0.7 5.3,0.4 7.8,-1c2.5,-1.5 4,-3.5 4.8,-6.2l0,-0.1c0.7,-2.7 0.3,-5.3 -1.1,-7.7c-1.4,-2.5 -3.5,-4.1 -6.2,-4.8c-2.7,-0.8 -5.4,-0.4 -7.8,1c-2.5,1.4 -4,3.5 -4.7,6.3zm6,-4c1.9,-1.1 3.8,-1.4 5.8,-0.8c2,0.5 3.6,1.7 4.7,3.6c1.1,1.8 1.3,3.8 0.8,5.8c-0.6,2 -1.8,3.6 -3.6,4.6l0,0.1c-1.9,1 -3.8,1.3 -5.8,0.7c-2.1,-0.5 -3.6,-1.7 -4.7,-3.6c-1,-1.8 -1.3,-3.7 -0.8,-5.8c0.6,-2 1.8,-3.5 3.6,-4.6z"/>
   <metadata>image/svg+xmlOpenclipartBlack cogwheels2013-09-14T15:51:34Black cogwheelshttps://openclipart.org/detail/183435/black-cogwheels-by-liftarn-183435liftarnblackcogwheelcogwheelsgeargears</metadata>
  </symbol>
 </defs>
</svg>