<?xml version="1.0"?>
<svg width="493.76300000000003" height="493.76300000000003" xmlns="http://www.w3.org/2000/svg" xmlns:svg="http://www.w3.org/2000/svg">
 <g>
  <title>Layer 1</title>
  <g id="svg_5"/>
  <g id="svg_6"/>
  <g id="svg_7"/>
  <g id="svg_8"/>
  <g id="svg_9"/>
  <g id="svg_10"/>
  <g id="svg_11"/>
  <g id="svg_12"/>
  <g id="svg_13"/>
  <g id="svg_14"/>
  <g id="svg_15"/>
  <g id="svg_16"/>
  <g id="svg_17"/>
  <g id="svg_18"/>
  <g id="svg_19"/>
  <g id="svg_39">
   <g id="svg_1">
    <g id="svg_2">
     <path fill="#aaffff" d="m214.711391,113.485037c-15.23,15.23 -15.23,39.924 0,55.155c15.229,15.229 39.924,15.229 55.155,0c15.229,-15.23 15.229,-39.925 0,-55.155c-15.231,-15.23 -39.926,-15.231 -55.155,0zm54.094,26.516c-3.163,3.163 -11.426,0.028 -18.455,-7.001c-7.03,-7.028 -10.163,-15.292 -7.001,-18.455c3.163,-3.163 11.426,-0.028 18.455,7.001c7.03,7.03 10.164,15.292 7.001,18.455z" id="svg_3"/>
     <path fill="#aaffff" d="m489.062391,158.336037c-2.499,-3.59 -4.943,-7.217 -7.416,-10.825c-11.234,-16.395 -24.361,-31.432 -38.634,-45.25c-18.247,-17.668 -38.232,-33.562 -59.815,-46.977c-21.725,-13.503 -44.939,-24.555 -69.36,-32.229c-20.185,-6.343 -41.121,-10.143 -62.259,-11.08c-19.646,-0.87 -39.361,1.082 -58.568,5.226c-25.07,5.41 -49.316,14.792 -71.924,26.844c-22.479,11.984 -43.529,26.554 -62.86,43.136c-9.581,8.219 -18.742,16.945 -27.403,26.127c-8.199,8.692 -16.095,17.792 -23.099,27.482c-2.513,3.477 -4.929,7.017 -7.358,10.551c-1.583,2.305 -3.196,4.588 -4.749,6.911c-0.308,0.46 -0.209,0.493 0.341,0.936c1.125,0.904 2.251,1.811 3.376,2.716c4.019,3.231 7.868,6.657 11.876,9.902c10.058,8.143 20.533,15.773 31.28,22.979c21.353,14.315 43.874,26.92 67.405,37.287c4.774,2.104 9.615,4.03 14.447,5.994c-10.817,-6.859 -21.424,-13.953 -31.621,-21.716c-10.308,-7.848 -20.254,-16.162 -29.828,-24.89c-11.343,-10.34 -22.193,-21.244 -32.37,-32.735c19.287,-12.559 38.938,-24.542 59.188,-35.491c19.651,-10.624 39.85,-20.042 60.676,-28.12c4.186,-1.624 8.418,-3.162 12.689,-4.611c-9.357,14.609 -14.787,31.962 -14.787,50.561c0,51.832 42.168,94 94,94c51.833,0 94,-42.168 94,-94c0,-18.5 -5.375,-35.767 -14.641,-50.327c5.421,1.832 10.797,3.792 16.121,5.865c24.207,9.427 47.465,21.143 70.049,33.943c15.688,8.894 31.021,18.39 46.147,28.207c-17.028,19.229 -35.871,36.935 -56.022,52.855c-12.084,9.547 -24.713,18.213 -37.709,26.459c11.85,-4.81 23.533,-9.886 34.938,-15.685c11.521,-5.855 22.777,-12.227 33.75,-19.054c17.941,-11.164 35.457,-23.409 51.418,-37.288c1.821,-1.584 3.69,-3.093 5.572,-4.606c0.949,-0.766 1.9,-1.529 2.85,-2.294c0.472,-0.378 0.562,-0.427 0.3,-0.803zm-246.774,46.727c-35.29,0 -64,-28.71 -64,-64c0,-35.291 28.71,-64 64,-64c35.291,0 64,28.71 64,64c0.001,35.29 -28.709,64 -64,64z" id="svg_4"/>
    </g>
   </g>
   <path stroke="#ffffff" id="svg_37" d="m335.691642,390.018565l-8.065389,-25.049642c2.363636,-1.839856 4.582136,-3.808502 6.676234,-5.915138l28.208127,7.157041c2.975278,-3.845299 5.535884,-7.92978 7.826952,-12.170649l-20.992818,-18.030591c1.005582,-2.649393 1.876395,-5.344782 2.498404,-8.122965l28.291061,-6.292308c0.207336,-2.318219 0.404306,-4.645637 0.404306,-7.019051s-0.207336,-4.691633 -0.404306,-7.009852l-28.291061,-6.292308c-0.632376,-2.778183 -1.503189,-5.473572 -2.498404,-8.122965l21.003184,-18.030591c-2.301435,-4.231669 -4.86204,-8.325349 -7.837319,-12.170649l-28.208127,7.147841c-2.083732,-2.097436 -4.312599,-4.066082 -6.676234,-5.915138l8.065389,-25.040443c-4.333332,-2.630994 -8.946569,-4.912416 -13.725674,-6.945457l-20.318974,18.637743c-2.975278,-0.89233 -6.023124,-1.655871 -9.153905,-2.217027l-7.08054,-25.114037c-2.622806,-0.174786 -5.235246,-0.358772 -7.909886,-0.358772s-5.28708,0.183986 -7.89952,0.358772l-7.090907,25.114037c-3.130781,0.561156 -6.16826,1.324696 -9.153905,2.217027l-20.318974,-18.637743c-4.768739,2.060639 -9.371608,4.332861 -13.704941,6.973055l8.065389,25.040443c-2.363636,1.839856 -4.592503,3.817702 -6.665868,5.905938l-28.218494,-7.157041c-2.975278,3.845299 -5.535884,7.938979 -7.826952,12.179848l21.003184,18.030591c-0.995215,2.649393 -1.866028,5.344782 -2.498404,8.122965l-28.301428,6.292308c-0.19697,2.318219 -0.404306,4.645637 -0.404306,7.009852s0.207336,4.691633 0.404306,7.019051l28.301428,6.292308c0.632376,2.778183 1.503189,5.473572 2.498404,8.122965l-21.003184,18.030591c2.291068,4.231669 4.851673,8.325349 7.826952,12.170649l28.218494,-7.157041c2.073365,2.106635 4.302232,4.066082 6.665868,5.915138l-8.065389,25.049642c4.333332,2.630994 8.946569,4.903217 13.715308,6.945457l20.318974,-18.637743c2.985645,0.89233 6.023124,1.66507 9.153905,2.217027l7.090907,25.104838c2.61244,0.183986 5.235246,0.358772 7.909886,0.358772s5.28708,-0.183986 7.909886,-0.358772l7.08054,-25.104838c3.130781,-0.561156 6.178627,-1.333896 9.153905,-2.217027l20.318974,18.637743c4.758372,-2.060639 9.371608,-4.332861 13.704941,-6.963856zm-58.178614,-44.165748c-19.458528,0 -35.236833,-14.001306 -35.236833,-31.268356s15.778305,-31.259157 35.236833,-31.259157s35.226466,13.992106 35.226466,31.259157s-15.767939,31.268356 -35.226466,31.268356zm160.60283,65.360891c0.19697,-5.032007 -0.622009,-10.156006 -2.384369,-15.215611l12.896328,-16.310325c-1.948963,-3.219748 -4.146729,-6.27391 -6.645134,-9.052092l-21.998399,4.09368c-4.437,-3.348538 -9.485644,-5.961134 -14.886759,-7.828588l-6.334129,-19.125305c-4.001594,-0.625551 -8.055022,-0.965925 -12.160284,-0.975124l-10.097286,17.809808c-2.892344,0.496761 -5.784688,1.177508 -8.625197,2.143432c-2.664274,0.90153 -5.152311,2.023842 -7.536681,3.247346l-20.795848,-7.534211c-3.078947,2.410212 -5.888356,5.013608 -8.428228,7.837787l9.402709,18.104185c-2.685007,4.553644 -4.530302,9.456861 -5.380381,14.58086l-19.603663,9.751238c0.19697,3.569321 0.787879,7.138642 1.700159,10.717162l21.811797,4.774427c2.394736,4.820423 5.608452,9.134886 9.49601,12.814598l-3.649122,19.668063c3.317384,2.115835 6.842104,3.937292 10.501592,5.519569l17.779102,-12.143051c5.556617,1.297099 11.372405,1.79386 17.229661,1.379892l15.052628,14.783245c2.073365,-0.524359 4.136363,-1.085515 6.178627,-1.775461c1.814194,-0.607153 3.52472,-1.324696 5.235246,-2.05144l0.383572,-19.916443c4.716905,-3.118556 8.739232,-6.871863 11.942581,-11.094333l22.402706,-1.232704c1.575757,-3.302542 2.892344,-6.733874 3.814991,-10.257198l-17.302228,-12.713406zm-43.157086,18.462957c-12.450555,4.213271 -26.383566,-1.324696 -31.141938,-12.373033s1.482456,-23.421369 13.933011,-27.643839c12.450555,-4.213271 26.404299,1.324696 31.162671,12.373033c4.748005,11.048336 -1.503189,23.421369 -13.953744,27.643839z" stroke-width="5" fill="#aaffff"/>
  </g>
 </g>

</svg>