<?xml version="1.0"?>
<svg width="640" height="480" xmlns="http://www.w3.org/2000/svg" xmlns:svg="http://www.w3.org/2000/svg" xmlns:xlink="http://www.w3.org/1999/xlink">
 <!-- Created with SVG-edit - http://svg-edit.googlecode.com/ -->
 <defs>
  <symbol viewBox="0 0 493.763 493.763" height="493.763px" width="493.763px" y="0px" x="0px" id="svg_5" xmlns:xlink="http://www.w3.org/1999/xlink" xmlns="http://www.w3.org/2000/svg">
   <g>
    <g>
     <path d="m219.267,235.448c-15.23,15.23 -15.23,39.924 0,55.155c15.229,15.229 39.924,15.229 55.155,0c15.229,-15.23 15.229,-39.925 0,-55.155c-15.231,-15.23 -39.926,-15.231 -55.155,0zm54.094,26.516c-3.163,3.163 -11.426,0.028 -18.455,-7.001c-7.03,-7.028 -10.163,-15.292 -7.001,-18.455c3.163,-3.163 11.426,-0.028 18.455,7.001c7.03,7.03 10.164,15.292 7.001,18.455z"/>
     <path d="m493.618,280.299c-2.499,-3.59 -4.943,-7.217 -7.416,-10.825c-11.234,-16.395 -24.361,-31.432 -38.634,-45.25c-18.247,-17.668 -38.232,-33.562 -59.815,-46.977c-21.725,-13.503 -44.939,-24.555 -69.36,-32.229c-20.185,-6.343 -41.121,-10.143 -62.259,-11.08c-19.646,-0.87 -39.361,1.082 -58.568,5.226c-25.07,5.41 -49.316,14.792 -71.924,26.844c-22.479,11.984 -43.529,26.554 -62.86,43.136c-9.581,8.219 -18.742,16.945 -27.403,26.127c-8.199,8.692 -16.095,17.792 -23.099,27.482c-2.513,3.477 -4.929,7.017 -7.358,10.551c-1.583,2.305 -3.196,4.588 -4.749,6.911c-0.308,0.46 -0.209,0.493 0.341,0.936c1.125,0.904 2.251,1.811 3.376,2.716c4.019,3.231 7.868,6.657 11.876,9.902c10.058,8.143 20.533,15.773 31.28,22.979c21.353,14.315 43.874,26.92 67.405,37.287c4.774,2.104 9.615,4.03 14.447,5.994c-10.817,-6.859 -21.424,-13.953 -31.621,-21.716c-10.308,-7.848 -20.254,-16.162 -29.828,-24.89c-11.343,-10.34 -22.193,-21.244 -32.37,-32.735c19.287,-12.559 38.938,-24.542 59.188,-35.491c19.651,-10.624 39.85,-20.042 60.676,-28.12c4.186,-1.624 8.418,-3.162 12.689,-4.611c-9.357,14.609 -14.787,31.962 -14.787,50.561c0,51.832 42.168,94 94,94c51.833,0 94,-42.168 94,-94c0,-18.5 -5.375,-35.767 -14.641,-50.327c5.421,1.832 10.797,3.792 16.121,5.865c24.207,9.427 47.465,21.143 70.049,33.943c15.688,8.894 31.021,18.39 46.147,28.207c-17.028,19.229 -35.871,36.935 -56.022,52.855c-12.084,9.547 -24.713,18.213 -37.709,26.459c11.85,-4.81 23.533,-9.886 34.938,-15.685c11.521,-5.855 22.777,-12.227 33.75,-19.054c17.941,-11.164 35.457,-23.409 51.418,-37.288c1.821,-1.584 3.69,-3.093 5.572,-4.606c0.949,-0.766 1.9,-1.529 2.85,-2.294c0.472,-0.378 0.562,-0.427 0.3,-0.803zm-246.774,46.727c-35.29,0 -64,-28.71 -64,-64c0,-35.291 28.71,-64 64,-64c35.291,0 64,28.71 64,64c0.001,35.29 -28.709,64 -64,64z"/>
    </g>
   </g>
   <g/>
   <g/>
   <g/>
   <g/>
   <g/>
   <g/>
   <g/>
   <g/>
   <g/>
   <g/>
   <g/>
   <g/>
   <g/>
   <g/>
   <g/>
  </symbol>
 </defs>
 <g>
  <title>Layer 1</title>
  <use x="0" y="0" transform="matrix(0.828250480868048,0,0,0.934856550596096,30.157740766323926,-76.39772916487814) " xlink:href="#svg_5" id="svg_6"/>
  <g id="svg_7"/>
  <path stroke="#000000" id="svg_8" d="m403.335135,354.085036l-5.339976,-17.970271c1.564929,-1.319888 3.033765,-2.732168 4.420237,-4.243439l18.676187,5.134363c1.969888,-2.758565 3.665227,-5.688716 5.18211,-8.731057l-13.899037,-12.934899c0.665781,-1.900638 1.242334,-3.834274 1.654157,-5.827304l18.731097,-4.514016c0.137274,-1.663058 0.267685,-3.332716 0.267685,-5.035372s-0.137274,-3.365714 -0.267685,-5.028772l-18.731097,-4.514016c-0.418687,-1.99303 -0.99524,-3.926666 -1.654157,-5.827304l13.9059,-12.934899c-1.523746,-3.035742 -3.219086,-5.972492 -5.188974,-8.731057l-18.676187,5.127764c-1.379608,-1.504672 -2.855308,-2.916952 -4.420237,-4.243439l5.339976,-17.963671c-2.869036,-1.887439 -5.923392,-3.5241 -9.087568,-4.982576l-13.452895,13.370462c-1.969888,-0.640146 -3.987822,-1.187899 -6.060666,-1.590465l-4.687922,-18.016467c-1.736522,-0.125389 -3.46618,-0.257378 -5.23702,-0.257378s-3.500498,0.131989 -5.230156,0.257378l-4.694786,18.016467c-2.072844,0.402566 -4.083914,0.950319 -6.060666,1.590465l-13.452895,-13.370462c-3.157312,1.478274 -6.204805,3.108335 -9.07384,5.002374l5.339976,17.963671c-1.564929,1.319888 -3.040629,2.738767 -4.413373,4.236839l-18.683051,-5.134363c-1.969888,2.758565 -3.665227,5.695315 -5.18211,8.737656l13.9059,12.934899c-0.658917,1.900638 -1.23547,3.834274 -1.654157,5.827304l-18.737961,4.514016c-0.130411,1.663058 -0.267685,3.332716 -0.267685,5.028772s0.137274,3.365714 0.267685,5.035372l18.737961,4.514016c0.418687,1.99303 0.99524,3.926666 1.654157,5.827304l-13.9059,12.934899c1.516883,3.035742 3.212222,5.972492 5.18211,8.731057l18.683051,-5.134363c1.372744,1.511271 2.848445,2.916952 4.413373,4.243439l-5.339976,17.970271c2.869036,1.887439 5.923392,3.517501 9.080704,4.982576l13.452895,-13.370462c1.976752,0.640146 3.987822,1.194498 6.060666,1.590465l4.694786,18.009867c1.729658,0.131989 3.46618,0.257378 5.23702,0.257378s3.500498,-0.131989 5.23702,-0.257378l4.687922,-18.009867c2.072844,-0.402566 4.090778,-0.956919 6.060666,-1.590465l13.452895,13.370462c3.150448,-1.478274 6.204805,-3.108335 9.07384,-4.995775zm-38.519207,-31.683904c-12.883206,0 -23.329791,-10.044345 -23.329791,-22.431491s10.446585,-22.424892 23.329791,-22.424892s23.322927,10.037746 23.322927,22.424892s-10.439721,22.431491 -23.322927,22.431491zm106.332779,46.88901c0.130411,-3.609893 -0.411823,-7.28578 -1.578656,-10.915471l8.53847,-11.700804c-1.29038,-2.309803 -2.745489,-4.500817 -4.399646,-6.493847l-14.564818,2.93675c-2.937673,-2.402196 -6.280305,-4.276436 -9.856305,-5.616122l-4.193734,-13.720232c-2.649397,-0.448762 -5.333112,-0.692941 -8.051146,-0.69954l-6.685265,12.776513c-1.914978,0.35637 -3.829957,0.844728 -5.710617,1.537669c-1.763977,0.646745 -3.41127,1.451876 -4.989926,2.329602l-13.768626,-5.40494c-2.038525,1.729053 -3.898594,3.596694 -5.580206,5.622722l6.225396,12.987695c-1.777704,3.266722 -2.999446,6.784223 -3.562272,10.46011l-12.979298,6.995405c0.130411,2.560582 0.521643,5.121164 1.12565,7.688346l14.441271,3.425109c1.58552,3.458106 3.713274,6.553242 6.287169,9.193018l-2.41603,14.109599c2.196391,1.517871 4.530056,2.82456 6.95295,3.959663l11.771283,-8.711259c3.678955,0.930521 7.529503,1.28689 11.407506,0.989916l9.966124,10.605298c1.372744,-0.376168 2.738625,-0.778734 4.090778,-1.273692c1.201151,-0.435563 2.333665,-0.950319 3.46618,-1.471675l0.253958,-14.287784c3.122993,-2.23721 5.786118,-4.929781 7.907008,-7.958923l14.832503,-0.884325c1.043286,-2.369198 1.914978,-4.830789 2.52585,-7.358374l-11.455552,-9.120424zm-28.573674,13.245073c-8.24333,3.022543 -17.468172,-0.950319 -20.61862,-8.876245s0.981512,-16.80217 9.224842,-19.831312c8.24333,-3.022543 17.4819,0.950319 20.632348,8.876245c3.143585,7.925926 -0.99524,16.80217 -9.23857,19.831312z" stroke-linecap="null" stroke-linejoin="null" stroke-dasharray="null" stroke-width="5" fill="#ffffff"/>
 </g>
</svg>